name rise30.2954peak35.7071fall66.7804.mot
datacolumns 19
datarows 36
range 7.52331000000000 7.58164500000000
endheader
time	ground_force1_vx	ground_force1_vy	ground_force1_vz	ground_force1_px	ground_force1_py	ground_force1_pz	ground_force2_vx	ground_force2_vy	ground_force2_vz	ground_force2_px	ground_force2_py	ground_force2_pz	ground_torque1_x	ground_torque1_y	ground_torque1_z	ground_torque2_x	ground_torque2_y	ground_torque2_z	
7.52331000000000	22.62294600000000	696.72221700000000	33.02745000000000	0.25461000000000	0.00000000000000	0.08221100000000	0.00000000000000	0.00000000000000	0.00000000000000	0.00000000000000	0.00000000000000	0.00000000000000	0.00000000000000	13.30810900000000	0.00000000000000	0.00000000000000	0.00000000000000	0.00000000000000	
7.52497700000000	22.34685000000000	697.24265100000002	32.98460900000000	0.25407100000000	0.00000000000000	0.08211700000000	0.00000000000000	0.00000000000000	0.00000000000000	0.00000000000000	0.00000000000000	0.00000000000000	0.00000000000000	13.32511300000000	0.00000000000000	0.00000000000000	0.00000000000000	0.00000000000000	
7.52664200000000	22.05139500000000	697.79759100000001	32.95020300000000	0.25349200000000	0.00000000000000	0.08202800000000	0.00000000000000	0.00000000000000	0.00000000000000	0.00000000000000	0.00000000000000	0.00000000000000	0.00000000000000	13.34813000000000	0.00000000000000	0.00000000000000	0.00000000000000	0.00000000000000	
7.52831200000000	21.73621000000000	698.38649299999997	32.92410800000000	0.25287000000000	0.00000000000000	0.08194200000000	0.00000000000000	0.00000000000000	0.00000000000000	0.00000000000000	0.00000000000000	0.00000000000000	0.00000000000000	13.37706200000000	0.00000000000000	0.00000000000000	0.00000000000000	0.00000000000000	
7.52997900000000	21.40099400000000	699.00888299999997	32.90618900000000	0.25220700000000	0.00000000000000	0.08186000000000	0.00000000000000	0.00000000000000	0.00000000000000	0.00000000000000	0.00000000000000	0.00000000000000	0.00000000000000	13.41180300000000	0.00000000000000	0.00000000000000	0.00000000000000	0.00000000000000	
7.53163900000000	21.04551100000000	699.66435799999999	32.89629500000000	0.25150000000000	0.00000000000000	0.08178100000000	0.00000000000000	0.00000000000000	0.00000000000000	0.00000000000000	0.00000000000000	0.00000000000000	0.00000000000000	13.45223400000000	0.00000000000000	0.00000000000000	0.00000000000000	0.00000000000000	
7.53331300000000	20.66959800000000	700.35258799999997	32.89426700000000	0.25074900000000	0.00000000000000	0.08170700000000	0.00000000000000	0.00000000000000	0.00000000000000	0.00000000000000	0.00000000000000	0.00000000000000	0.00000000000000	13.49823200000000	0.00000000000000	0.00000000000000	0.00000000000000	0.00000000000000	
7.53497900000000	20.27315800000000	701.07330899999999	32.89993000000000	0.24995500000000	0.00000000000000	0.08163700000000	0.00000000000000	0.00000000000000	0.00000000000000	0.00000000000000	0.00000000000000	0.00000000000000	0.00000000000000	13.54966300000000	0.00000000000000	0.00000000000000	0.00000000000000	0.00000000000000	
7.53664300000000	19.85616500000000	701.82632699999999	32.91309800000000	0.24911700000000	0.00000000000000	0.08157100000000	0.00000000000000	0.00000000000000	0.00000000000000	0.00000000000000	0.00000000000000	0.00000000000000	0.00000000000000	13.60638500000000	0.00000000000000	0.00000000000000	0.00000000000000	0.00000000000000	
7.53830600000000	19.41866000000000	702.61151400000006	32.93357600000000	0.24823600000000	0.00000000000000	0.08150800000000	0.00000000000000	0.00000000000000	0.00000000000000	0.00000000000000	0.00000000000000	0.00000000000000	0.00000000000000	13.66824800000000	0.00000000000000	0.00000000000000	0.00000000000000	0.00000000000000	
7.53997400000000	18.96075300000000	703.42880500000001	32.96115700000000	0.24731300000000	0.00000000000000	0.08145000000000	0.00000000000000	0.00000000000000	0.00000000000000	0.00000000000000	0.00000000000000	0.00000000000000	0.00000000000000	13.73509500000000	0.00000000000000	0.00000000000000	0.00000000000000	0.00000000000000	
7.54164200000000	18.48261900000000	704.27819399999998	32.99562300000000	0.24634800000000	0.00000000000000	0.08139500000000	0.00000000000000	0.00000000000000	0.00000000000000	0.00000000000000	0.00000000000000	0.00000000000000	0.00000000000000	13.80676100000000	0.00000000000000	0.00000000000000	0.00000000000000	0.00000000000000	
7.54331300000000	17.98450000000000	705.15973499999996	33.03674900000000	0.24534300000000	0.00000000000000	0.08134400000000	0.00000000000000	0.00000000000000	0.00000000000000	0.00000000000000	0.00000000000000	0.00000000000000	0.00000000000000	13.88307600000000	0.00000000000000	0.00000000000000	0.00000000000000	0.00000000000000	
7.54497100000000	17.46670000000000	706.07353200000000	33.08430000000000	0.24429900000000	0.00000000000000	0.08129700000000	0.00000000000000	0.00000000000000	0.00000000000000	0.00000000000000	0.00000000000000	0.00000000000000	0.00000000000000	13.96386100000000	0.00000000000000	0.00000000000000	0.00000000000000	0.00000000000000	
7.54663900000000	16.92958700000000	707.01974099999995	33.13803500000000	0.24321800000000	0.00000000000000	0.08125300000000	0.00000000000000	0.00000000000000	0.00000000000000	0.00000000000000	0.00000000000000	0.00000000000000	0.00000000000000	14.04893400000000	0.00000000000000	0.00000000000000	0.00000000000000	0.00000000000000	
7.54830500000000	16.37358600000000	707.99856100000000	33.19770500000000	0.24210100000000	0.00000000000000	0.08121200000000	0.00000000000000	0.00000000000000	0.00000000000000	0.00000000000000	0.00000000000000	0.00000000000000	0.00000000000000	14.13810700000000	0.00000000000000	0.00000000000000	0.00000000000000	0.00000000000000	
7.54997700000000	15.79918100000000	709.01023299999997	33.26305400000000	0.24095000000000	0.00000000000000	0.08117500000000	0.00000000000000	0.00000000000000	0.00000000000000	0.00000000000000	0.00000000000000	0.00000000000000	0.00000000000000	14.23118400000000	0.00000000000000	0.00000000000000	0.00000000000000	0.00000000000000	
7.55163900000000	15.20691100000000	710.05502999999999	33.33382500000000	0.23976800000000	0.00000000000000	0.08114100000000	0.00000000000000	0.00000000000000	0.00000000000000	0.00000000000000	0.00000000000000	0.00000000000000	0.00000000000000	14.32797000000000	0.00000000000000	0.00000000000000	0.00000000000000	0.00000000000000	
7.55331000000000	14.59736700000000	711.13325599999996	33.40975400000000	0.23855700000000	0.00000000000000	0.08110900000000	0.00000000000000	0.00000000000000	0.00000000000000	0.00000000000000	0.00000000000000	0.00000000000000	0.00000000000000	14.42826100000000	0.00000000000000	0.00000000000000	0.00000000000000	0.00000000000000	
7.55497300000000	13.97118800000000	712.24523999999997	33.49057500000000	0.23731800000000	0.00000000000000	0.08108100000000	0.00000000000000	0.00000000000000	0.00000000000000	0.00000000000000	0.00000000000000	0.00000000000000	0.00000000000000	14.53185300000000	0.00000000000000	0.00000000000000	0.00000000000000	0.00000000000000	
7.55665200000000	13.32906200000000	713.39132600000005	33.57602000000000	0.23605600000000	0.00000000000000	0.08105500000000	0.00000000000000	0.00000000000000	0.00000000000000	0.00000000000000	0.00000000000000	0.00000000000000	0.00000000000000	14.63853800000000	0.00000000000000	0.00000000000000	0.00000000000000	0.00000000000000	
7.55830900000000	12.67171500000000	714.57187199999998	33.66582100000000	0.23477100000000	0.00000000000000	0.08103100000000	0.00000000000000	0.00000000000000	0.00000000000000	0.00000000000000	0.00000000000000	0.00000000000000	0.00000000000000	14.74810400000000	0.00000000000000	0.00000000000000	0.00000000000000	0.00000000000000	
7.55997500000000	11.99991900000000	715.78724199999999	33.75971000000000	0.23346800000000	0.00000000000000	0.08100900000000	0.00000000000000	0.00000000000000	0.00000000000000	0.00000000000000	0.00000000000000	0.00000000000000	0.00000000000000	14.86034000000000	0.00000000000000	0.00000000000000	0.00000000000000	0.00000000000000	
7.56164300000000	11.31447600000000	717.03779699999996	33.85742100000000	0.23214800000000	0.00000000000000	0.08099000000000	0.00000000000000	0.00000000000000	0.00000000000000	0.00000000000000	0.00000000000000	0.00000000000000	0.00000000000000	14.97503200000000	0.00000000000000	0.00000000000000	0.00000000000000	0.00000000000000	
7.56331300000000	10.61622400000000	718.32389300000000	33.95869100000000	0.23081400000000	0.00000000000000	0.08097200000000	0.00000000000000	0.00000000000000	0.00000000000000	0.00000000000000	0.00000000000000	0.00000000000000	0.00000000000000	15.09196200000000	0.00000000000000	0.00000000000000	0.00000000000000	0.00000000000000	
7.56497700000000	9.90602900000000	719.64587100000006	34.06325900000000	0.22947000000000	0.00000000000000	0.08095600000000	0.00000000000000	0.00000000000000	0.00000000000000	0.00000000000000	0.00000000000000	0.00000000000000	0.00000000000000	15.21091500000000	0.00000000000000	0.00000000000000	0.00000000000000	0.00000000000000	
7.56664000000000	9.18478300000000	721.00405300000000	34.17087100000000	0.22811700000000	0.00000000000000	0.08094100000000	0.00000000000000	0.00000000000000	0.00000000000000	0.00000000000000	0.00000000000000	0.00000000000000	0.00000000000000	15.33167500000000	0.00000000000000	0.00000000000000	0.00000000000000	0.00000000000000	
7.56830500000000	8.45339800000000	722.39873399999999	34.28127700000000	0.22676000000000	0.00000000000000	0.08092700000000	0.00000000000000	0.00000000000000	0.00000000000000	0.00000000000000	0.00000000000000	0.00000000000000	0.00000000000000	15.45402300000000	0.00000000000000	0.00000000000000	0.00000000000000	0.00000000000000	
7.56997800000000	7.71280400000000	723.83017400000006	34.39423500000000	0.22539900000000	0.00000000000000	0.08091400000000	0.00000000000000	0.00000000000000	0.00000000000000	0.00000000000000	0.00000000000000	0.00000000000000	0.00000000000000	15.57774200000000	0.00000000000000	0.00000000000000	0.00000000000000	0.00000000000000	
7.57164500000000	6.96394700000000	725.29859599999997	34.50951000000000	0.22403900000000	0.00000000000000	0.08090200000000	0.00000000000000	0.00000000000000	0.00000000000000	0.00000000000000	0.00000000000000	0.00000000000000	0.00000000000000	15.70261700000000	0.00000000000000	0.00000000000000	0.00000000000000	0.00000000000000	
7.57331000000000	6.20777900000000	726.80417699999998	34.62687700000000	0.22268100000000	0.00000000000000	0.08089000000000	0.00000000000000	0.00000000000000	0.00000000000000	0.00000000000000	0.00000000000000	0.00000000000000	0.00000000000000	15.82843200000000	0.00000000000000	0.00000000000000	0.00000000000000	0.00000000000000	
7.57497100000000	5.44526300000000	728.34704099999999	34.74612000000000	0.22132800000000	0.00000000000000	0.08087900000000	0.00000000000000	0.00000000000000	0.00000000000000	0.00000000000000	0.00000000000000	0.00000000000000	0.00000000000000	15.95497200000000	0.00000000000000	0.00000000000000	0.00000000000000	0.00000000000000	
7.57664600000000	4.67736100000000	729.92725299999995	34.86703100000000	0.21998300000000	0.00000000000000	0.08086800000000	0.00000000000000	0.00000000000000	0.00000000000000	0.00000000000000	0.00000000000000	0.00000000000000	0.00000000000000	16.08202300000000	0.00000000000000	0.00000000000000	0.00000000000000	0.00000000000000	
7.57831300000000	3.90503500000000	731.54481699999997	34.98941700000000	0.21864700000000	0.00000000000000	0.08085700000000	0.00000000000000	0.00000000000000	0.00000000000000	0.00000000000000	0.00000000000000	0.00000000000000	0.00000000000000	16.20937400000000	0.00000000000000	0.00000000000000	0.00000000000000	0.00000000000000	
7.57997100000000	3.12924500000000	733.19966699999998	35.11309400000000	0.21732300000000	0.00000000000000	0.08084600000000	0.00000000000000	0.00000000000000	0.00000000000000	0.00000000000000	0.00000000000000	0.00000000000000	0.00000000000000	16.33681600000000	0.00000000000000	0.00000000000000	0.00000000000000	0.00000000000000	
7.58164500000000	2.35093800000000	734.89166200000000	35.23788900000000	0.21601300000000	0.00000000000000	0.08083400000000	0.00000000000000	0.00000000000000	0.00000000000000	0.00000000000000	0.00000000000000	0.00000000000000	0.00000000000000	16.46414100000000	0.00000000000000	0.00000000000000	0.00000000000000	0.00000000000000	
